# xmcd
#
# Track frame offsets:
#	150
#	17453
#	39645
#	58619
#	70541
#	93184
#	108749
#	131824
#	151436
#	164846
#	178150
#	196613
#	210006
#
# Disc length: 2975 seconds
#
# Revision: 3
# Processed by: cddbd v1.5.2PL0 Copyright (c) Steve Scherf et al.
# Submitted via: EZCDAudioConverter 3.1.5.1
#
DISCID=a90b9d0d
DTITLE=Various Artist - Σαν Ραδιόφωνο 5 [CD 2)
DYEAR=2000
DGENRE=Greek
TTITLE0=Ελένη Τσαλιγοπούλου - Ξαφνικά
TTITLE1=Ορφέας Περίδης - Παραμύθι
TTITLE2=Σωκράτης Μάλαμας - Μιά Άλλη Φωνή
TTITLE3=Φοίβος Δεληβοριάς - Θέλω να σε Ξεπεράσω
TTITLE4=Μανώλης Λιδάκης - Πάλι Πάλι
TTITLE5=Γλυκερία - Θα Μ' Αγαπήσεις
TTITLE6=Ελένη Βιτάλη - Το Τραγούδι των Γύφτων
TTITLE7=Χάρης and Πάνος Κατσιμίχας - Αμοργιανό μου Πέρασμα
TTITLE8=Δημήτρης Μπάσης - Ξαφνικά η Καρδιά
TTITLE9=Κώστας Μακεδόνας - Το Ποδήλατο
TTITLE10=Μπάμπης Τσέρτος - Απόψε Σιωπηλοί
TTITLE11=Μαρίζα Κώχ - Νύχτες Μαγικές
TTITLE12=Σταμάτης Κραουνάκης - Μοτίβο(Ορχηστρικό)
EXTD=
EXTT0=
EXTT1=
EXTT2=
EXTT3=
EXTT4=
EXTT5=
EXTT6=
EXTT7=
EXTT8=
EXTT9=
EXTT10=
EXTT11=
EXTT12=
PLAYORDER=
